<mxfile host="Electron" agent="Mozilla/5.0 (Windows NT 10.0; Win64; x64) AppleWebKit/537.36 (KHTML, like Gecko) draw.io/28.2.5 Chrome/138.0.7204.251 Electron/37.6.1 Safari/537.36" version="28.2.5">
  <diagram id="diagramProfessorStyle" name="Marimo Confidentiality Assurance - Light Style">
    <mxGraphModel dx="1708" dy="835" grid="1" gridSize="10" guides="1" tooltips="1" connect="1" arrows="1" fold="1" page="1" pageScale="1" pageWidth="2400" pageHeight="1600" math="0" shadow="0">
      <root>
        <mxCell id="0" />
        <mxCell id="1" parent="0" />
        <mxCell id="2" value="Top-Claim C1: Confidentiality of Data in Transit" style="ellipse;whiteSpace=wrap;html=1;fillColor=#DDEEFF;strokeColor=#003366;fontSize=14;fontStyle=1;align=center;labelBackgroundColor=default;" parent="1" vertex="1">
          <mxGeometry x="700" y="100" width="200" height="100" as="geometry" />
        </mxCell>
        <mxCell id="3" value="Context CT1: Marimo executes Python code between client and backend" style="ellipse;whiteSpace=wrap;html=1;fillColor=#FFFFFF;strokeColor=#5F6368;align=center;fontSize=12;labelBackgroundColor=default;" parent="1" vertex="1">
          <mxGeometry x="1100" y="100" width="260" height="80" as="geometry" />
        </mxCell>
        <mxCell id="4" style="endArrow=oval;dashed=1;strokeColor=#5f6368;labelBackgroundColor=default;" parent="1" source="2" target="3" edge="1">
          <mxGeometry relative="1" as="geometry" />
        </mxCell>
        <mxCell id="5" value="Inference Rule IR1: If TLS and HSTS are enforced, then data in transit remains confidential" style="rounded=1;whiteSpace=wrap;html=1;fillColor=#CCE5FF;strokeColor=#003366;align=center;fontSize=12;labelBackgroundColor=default;" parent="1" vertex="1">
          <mxGeometry x="700" y="250" width="300" height="80" as="geometry" />
        </mxCell>
        <mxCell id="6" style="endArrow=block;html=1;strokeWidth=2;labelBackgroundColor=default;" parent="1" source="2" target="5" edge="1">
          <mxGeometry relative="1" as="geometry" />
        </mxCell>
        <mxCell id="7" value="Rebuttal R1: Unless TLS is misconfigured or downgraded" style="shape=hexagon;whiteSpace=wrap;html=1;fillColor=#FFF4CC;strokeColor=#CC9900;align=center;fontSize=12;labelBackgroundColor=default;" parent="1" vertex="1">
          <mxGeometry x="350" y="250" width="260" height="80" as="geometry" />
        </mxCell>
        <mxCell id="8" value="Undercut UC1: Unless certificate validation is bypassed" style="shape=hexagon;whiteSpace=wrap;html=1;fillColor=#F8D7DA;strokeColor=#A52A2A;align=center;fontSize=12;labelBackgroundColor=default;" parent="1" vertex="1">
          <mxGeometry x="1050" y="250" width="280" height="80" as="geometry" />
        </mxCell>
        <mxCell id="9" style="endArrow=open;dashed=1;strokeColor=#CC9900;labelBackgroundColor=default;" parent="1" source="2" target="7" edge="1">
          <mxGeometry relative="1" as="geometry" />
        </mxCell>
        <mxCell id="10" style="endArrow=open;dashed=1;strokeColor=#A52A2A;labelBackgroundColor=default;" parent="1" source="5" target="8" edge="1">
          <mxGeometry relative="1" as="geometry" />
        </mxCell>
        <mxCell id="11" value="Sub-Claim C2: Transport Security Enforced" style="rounded=1;whiteSpace=wrap;html=1;fillColor=#F8F9FA;strokeColor=#333333;align=center;fontSize=12;labelBackgroundColor=default;" parent="1" vertex="1">
          <mxGeometry x="200" y="420" width="230" height="70" as="geometry" />
        </mxCell>
        <mxCell id="12" value="Sub-Claim C3: Authenticated Clientâ€“Server Exchange" style="rounded=1;whiteSpace=wrap;html=1;fillColor=#F8F9FA;strokeColor=#333333;align=center;fontSize=12;labelBackgroundColor=default;" parent="1" vertex="1">
          <mxGeometry x="500" y="420" width="230" height="70" as="geometry" />
        </mxCell>
        <mxCell id="13" value="Sub-Claim C4: Safe Client Data Handling" style="rounded=1;whiteSpace=wrap;html=1;fillColor=#F8F9FA;strokeColor=#333333;align=center;fontSize=12;labelBackgroundColor=default;" parent="1" vertex="1">
          <mxGeometry x="800" y="420" width="230" height="70" as="geometry" />
        </mxCell>
        <mxCell id="14" value="Sub-Claim C5: Hardened Deployment" style="rounded=1;whiteSpace=wrap;html=1;fillColor=#F8F9FA;strokeColor=#333333;align=center;fontSize=12;labelBackgroundColor=default;" parent="1" vertex="1">
          <mxGeometry x="1100" y="420" width="230" height="70" as="geometry" />
        </mxCell>
        <mxCell id="15" value="Sub-Claim C6: Verified Encryption Policies" style="rounded=1;whiteSpace=wrap;html=1;fillColor=#F8F9FA;strokeColor=#333333;align=center;fontSize=12;labelBackgroundColor=default;" parent="1" vertex="1">
          <mxGeometry x="1400" y="420" width="230" height="70" as="geometry" />
        </mxCell>
        <mxCell id="16" style="endArrow=block;html=1;strokeWidth=2;labelBackgroundColor=default;" parent="1" source="5" target="11" edge="1">
          <mxGeometry relative="1" as="geometry" />
        </mxCell>
        <mxCell id="17" style="endArrow=block;html=1;strokeWidth=2;labelBackgroundColor=default;" parent="1" source="5" target="12" edge="1">
          <mxGeometry relative="1" as="geometry" />
        </mxCell>
        <mxCell id="18" style="endArrow=block;html=1;strokeWidth=2;labelBackgroundColor=default;" parent="1" source="5" target="13" edge="1">
          <mxGeometry relative="1" as="geometry" />
        </mxCell>
        <mxCell id="19" style="endArrow=block;html=1;strokeWidth=2;labelBackgroundColor=default;" parent="1" source="5" target="14" edge="1">
          <mxGeometry relative="1" as="geometry" />
        </mxCell>
        <mxCell id="20" style="endArrow=block;html=1;strokeWidth=2;labelBackgroundColor=default;" parent="1" source="5" target="15" edge="1">
          <mxGeometry relative="1" as="geometry" />
        </mxCell>
        <mxCell id="21" value="R2: TLS Misconfig / Downgrade" style="shape=hexagon;whiteSpace=wrap;html=1;fillColor=#FFF4CC;strokeColor=#CC9900;align=center;fontSize=12;labelBackgroundColor=default;" parent="1" vertex="1">
          <mxGeometry x="200" y="520" width="230" height="70" as="geometry" />
        </mxCell>
        <mxCell id="22" value="R3: Token Leakage / Invalid Cert" style="shape=hexagon;whiteSpace=wrap;html=1;fillColor=#FFF4CC;strokeColor=#CC9900;align=center;fontSize=12;labelBackgroundColor=default;" parent="1" vertex="1">
          <mxGeometry x="500" y="520" width="230" height="70" as="geometry" />
        </mxCell>
        <mxCell id="23" value="R4: CSP Ignored / Header Missing" style="shape=hexagon;whiteSpace=wrap;html=1;fillColor=#FFF4CC;strokeColor=#CC9900;align=center;fontSize=12;labelBackgroundColor=default;" parent="1" vertex="1">
          <mxGeometry x="800" y="520" width="230" height="70" as="geometry" />
        </mxCell>
        <mxCell id="24" value="R5: Public Exposure" style="shape=hexagon;whiteSpace=wrap;html=1;fillColor=#FFF4CC;strokeColor=#CC9900;align=center;fontSize=12;labelBackgroundColor=default;" parent="1" vertex="1">
          <mxGeometry x="1100" y="520" width="230" height="70" as="geometry" />
        </mxCell>
        <mxCell id="25" value="R6: Coverage Gaps" style="shape=hexagon;whiteSpace=wrap;html=1;fillColor=#FFF4CC;strokeColor=#CC9900;align=center;fontSize=12;labelBackgroundColor=default;" parent="1" vertex="1">
          <mxGeometry x="1400" y="520" width="230" height="70" as="geometry" />
        </mxCell>
        <mxCell id="26" style="endArrow=open;dashed=1;strokeColor=#CC9900;labelBackgroundColor=default;" parent="1" source="21" target="11" edge="1">
          <mxGeometry relative="1" as="geometry" />
        </mxCell>
        <mxCell id="27" style="endArrow=open;dashed=1;strokeColor=#CC9900;labelBackgroundColor=default;" parent="1" source="22" target="12" edge="1">
          <mxGeometry relative="1" as="geometry" />
        </mxCell>
        <mxCell id="28" style="endArrow=open;dashed=1;strokeColor=#CC9900;labelBackgroundColor=default;" parent="1" source="23" target="13" edge="1">
          <mxGeometry relative="1" as="geometry" />
        </mxCell>
        <mxCell id="29" style="endArrow=open;dashed=1;strokeColor=#CC9900;labelBackgroundColor=default;" parent="1" source="24" target="14" edge="1">
          <mxGeometry relative="1" as="geometry" />
        </mxCell>
        <mxCell id="30" style="endArrow=open;dashed=1;strokeColor=#CC9900;labelBackgroundColor=default;" parent="1" source="25" target="15" edge="1">
          <mxGeometry relative="1" as="geometry" />
        </mxCell>
        <mxCell id="31" value="Evidence E1: infra/nginx/nginx.conf" style="ellipse;whiteSpace=wrap;html=1;fillColor=#E0F2FF;strokeColor=#0179C0;align=center;fontSize=11;labelBackgroundColor=default;" parent="1" vertex="1">
          <mxGeometry x="200" y="620" width="150" height="60" as="geometry" />
        </mxCell>
        <mxCell id="32" value="Evidence E2: marimo/_server/asgi.py marimo/_server/tokens.py" style="ellipse;whiteSpace=wrap;html=1;fillColor=#E0F2FF;strokeColor=#0179C0;align=center;fontSize=11;labelBackgroundColor=default;" parent="1" vertex="1">
          <mxGeometry x="500" y="620" width="150" height="60" as="geometry" />
        </mxCell>
        <mxCell id="33" value="Evidence E3: marimo/tests/security/test_headers_policy.py" style="ellipse;whiteSpace=wrap;html=1;fillColor=#E0F2FF;strokeColor=#0179C0;align=center;fontSize=11;labelBackgroundColor=default;" parent="1" vertex="1">
          <mxGeometry x="800" y="620" width="150" height="60" as="geometry" />
        </mxCell>
        <mxCell id="34" value="Evidence E4: docs/programmatic_server.md" style="ellipse;whiteSpace=wrap;html=1;fillColor=#E0F2FF;strokeColor=#0179C0;align=center;fontSize=11;labelBackgroundColor=default;" parent="1" vertex="1">
          <mxGeometry x="1100" y="620" width="150" height="60" as="geometry" />
        </mxCell>
        <mxCell id="35" value="Evidence E5: marimo/tests/security/test_transport_tls.py" style="ellipse;whiteSpace=wrap;html=1;fillColor=#E0F2FF;strokeColor=#0179C0;align=center;fontSize=11;labelBackgroundColor=default;" parent="1" vertex="1">
          <mxGeometry x="1400" y="620" width="150" height="60" as="geometry" />
        </mxCell>
        <mxCell id="36" style="endArrow=block;html=1;strokeWidth=2;labelBackgroundColor=default;" parent="1" source="11" target="31" edge="1">
          <mxGeometry relative="1" as="geometry" />
        </mxCell>
        <mxCell id="37" style="endArrow=block;html=1;strokeWidth=2;labelBackgroundColor=default;" parent="1" source="12" target="32" edge="1">
          <mxGeometry relative="1" as="geometry" />
        </mxCell>
        <mxCell id="38" style="endArrow=block;html=1;strokeWidth=2;labelBackgroundColor=default;" parent="1" source="13" target="33" edge="1">
          <mxGeometry relative="1" as="geometry" />
        </mxCell>
        <mxCell id="39" style="endArrow=block;html=1;strokeWidth=2;labelBackgroundColor=default;" parent="1" source="14" target="34" edge="1">
          <mxGeometry relative="1" as="geometry" />
        </mxCell>
        <mxCell id="40" style="endArrow=block;html=1;strokeWidth=2;labelBackgroundColor=default;" parent="1" source="15" target="35" edge="1">
          <mxGeometry relative="1" as="geometry" />
        </mxCell>
      </root>
    </mxGraphModel>
  </diagram>
</mxfile>
